<?xml version="1.0" encoding="utf-8"?>
<!-- Generator: Adobe Illustrator 18.0.0, SVG Export Plug-In . SVG Version: 6.00 Build 0)  -->
<!DOCTYPE svg PUBLIC "-//W3C//DTD SVG 1.1//EN" "http://www.w3.org/Graphics/SVG/1.1/DTD/svg11.dtd">
<svg version="1.1" id="Layer_1" xmlns="http://www.w3.org/2000/svg" xmlns:xlink="http://www.w3.org/1999/xlink" x="0px" y="0px"
	 viewBox="0 0 100 100" enable-background="new 0 0 100 100" xml:space="preserve">
<g>
	<defs>
		<circle id="SVGID_1_" cx="50" cy="50" r="50"/>
	</defs>
	<use xlink:href="#SVGID_1_"  overflow="visible" fill="#F9F9E8"/>
	<clipPath id="SVGID_2_">
		<use xlink:href="#SVGID_1_"  overflow="visible"/>
	</clipPath>
	<g clip-path="url(#SVGID_2_)">
		<g>
			<path fill="#F9F9E8" d="M-9.6,106.1c0.7,0,1.4,0,2.1,0c38.6,0,77.1,0,115.7,0c1.9,0,2,0.3,2-2c0-36.6,0-73.1,0-109.7
				c0-0.7,0.1-1.4,0.1-2.1c0.1,0,0.2,0.1,0.2,0.1c0,0.3,0,0.6,0,1c0,37.3,0,74.7,0,112c0,0.2,0,0.5,0,0.7c0,0.3-0.1,0.4-0.4,0.4
				c-0.2,0-0.5,0-0.7,0c-39.3,0-78.6,0-117.9,0c-0.3,0-0.6,0-0.8,0C-9.5,106.5-9.6,106.2-9.6,106.1z"/>
			<path fill="#F9F9E8" d="M49.4,31.2c-0.1,1.1-0.1,2.3-1.1,3.1c-0.1,0.1-0.1,0.5,0,0.7c0.4,0.9,0.3,1-0.5,1.1
				c-0.4,0-0.6,0.1-0.6,0.5c0,0.6-0.4,0.8-0.9,0.8c-0.2,0-0.4-0.5-0.6-0.7c-0.2-0.2-0.4-0.4-0.6-0.4c-0.7,0.1-1.4,0.2-2.1,0.5
				c-0.5,0.2-0.9,0.3-1.5-0.1c-0.8-0.5-1.2-0.5-1.9,0.3c-0.4,0.4-0.7,0.6-1.2,0.6c-0.2,0-0.5,0.2-0.7,0.4c0.2,0.1,0.4,0.2,0.5,0.3
				c0.5,0.5,1.1,0.9,0.9,1.7c0,0.1,0.1,0.4,0.3,0.5c0.2,0.1,0.4,0.2,0.6,0.3c1.1,0.6,1.6,1.7,1.1,2.9c-0.4,0.9-0.4,1.6,0.2,2.4
				c0.2,0.2,0.2,0.8,0.1,1c-0.6,0.5-0.5,1-0.5,1.6c0,0.5-0.3,1.1-0.5,1.6c-0.1,0.3-0.1,0.3,0.3,0.7c0.1,0.1,0.2,0.2,0.2,0.3
				c-0.1,1-0.1,1.9-0.2,2.9c0,0.2-0.3,0.3-0.5,0.5c-0.3,0.2-0.7,0.4-1.1,0.6c-0.1,0.1-0.3,0.1-0.4,0.2c0-0.2,0-0.4,0.1-0.5
				c0.3-0.5,0.3-1.1,0-1.6c-0.2-0.4-0.3-0.8-0.2-1.2c0-0.7-0.1-1.1-0.8-1.6c-0.8-0.6-0.8-1.7-0.7-2.6c0-0.3,0.2-0.5,0.2-0.8
				c0-0.5-0.1-0.8-0.7-0.5c-0.2,0.1-0.4,0.1-0.6,0.2c0-0.2-0.1-0.5,0-0.7c0.1-0.2,0.4-0.4,0.6-0.4c1.8,0,2.5-0.6,2.2-2.5
				c-0.1-0.6-0.4-1.2-0.6-1.8c-0.1-0.1-0.3-0.3-0.5-0.3c-0.1,0-0.3,0.2-0.3,0.4c-0.2,0.3-0.3,0.7-0.5,1c-0.4-0.4-1-0.7-1.3-1.2
				c-0.3-0.5-0.2-1.1,0.5-1.4c0.2-0.1,0.3-0.3,0.4-0.4c-0.2-0.1-0.4-0.2-0.6-0.2c-0.1,0-0.3,0.1-0.4,0.2c-0.3,0.2-0.6,0.3-0.9,0.5
				c0.3-0.6-0.8-0.9-0.3-1.6c0.4-0.6,0-0.9-0.4-1.2c-0.5-0.4-0.9-0.9-1.4-1.3c-0.1-0.1-0.2-0.5-0.1-0.5c0.3-0.2,0.7-0.3,1.1-0.4
				c0.1,0,0.3,0.3,0.3,0.4c0.2,0.9,0.2,0.9,0.9,0.2c0.3-0.3,0.5-0.7,0.8-1c-0.4-0.3-0.8-0.6-1.3-0.8c-0.3-0.2-0.7-0.2-1-0.3
				c0.4,0,0.7,0,1.1-0.1c0.2,0,0.3-0.1,0.5-0.1c-0.1-0.1-0.1-0.3-0.2-0.4c-1.1-0.5-0.8-1.6-0.9-2.4c-0.1-0.5-0.2-1.3,0.7-1.4
				c0.1,0,0.2-0.3,0.2-0.4c0.3-1.1,0.5-1.4,1.6-1.3c0.7,0.1,1.2,0,1.7-0.6c0.5-0.7,1.8-0.2,2,0.6c0.3,1.1,0.6,1.3,1.6,1.5
				c0.2,0,0.4,0,0.6,0.1c1,0.7,1.9,0.5,3,0.1c0.7-0.2,1.4-0.1,2.1-0.1c0,0,0.2,0.4,0.1,0.4c-0.5,0.6-0.3,0.8,0.4,1
				C48.3,30.7,48.9,31,49.4,31.2L49.4,31.2z"/>
			<path fill="#F9F9E8" d="M29.4,33.7c-0.1,0.1-0.1,0.3-0.2,0.4c-0.8,0.6-1.6,1.2-2.3,1.9c-0.5,0.5-0.8,0.1-0.8-0.2
				c0-1-0.5-1.5-1.3-2c-0.5-0.3-0.4-1-0.1-1.4c0.6-0.9,1.2-1.7,1.9-2.5c0.3-0.4,0.7,0,0.8,0.3c0.2,0.4,0.3,0.9,0.6,1.3
				c0.1,0.2,0.4,0.4,0.5,0.4c1-0.4,0.8,0.3,0.8,0.8c0,0.4,0,0.7,0,1.1C29.3,33.7,29.3,33.7,29.4,33.7z"/>
			<path fill="#F9F9E8" d="M29,56.7c0.4-0.1,0.8-0.1,0.5-0.7c-0.5-1-0.3-1.3,0.7-1.7c0.5-0.2,0.9-0.6,1.4-0.9
				c0.2-0.2,0.4-0.4,0.7-0.5c0.2-0.1,0.5-0.1,0.7-0.1c0,0.2,0,0.4,0,0.6c-0.1,0.5-0.3,0.9-0.4,1.4c-0.3,0.8-0.7,1.5-1.7,1.5
				c-0.1,0-0.3,0.2-0.3,0.2c0.1,0.9-0.6,1.3-1,1.9c-0.3,0.4-0.7,0.4-1,0.1c-0.1-0.2,0-0.6,0.1-0.8C28.7,57.3,28.9,57,29,56.7
				L29,56.7z"/>
			<path fill="#F9F9E8" d="M29,56.7c-0.4,0.1-0.7,0.1-1.1,0.2c-0.7,0.1-1.1,0.4-1,1.1c0.1,0.5-0.1,0.7-0.5,0.7c-0.6,0-1.2,0-1.7,0
				c0,0-0.1-0.4-0.1-0.6c0.1-0.4,0.2-0.7,0.3-1c0.1-0.9,0.9-1.3,1.6-0.8c0.4,0.2,0.6,0.3,0.9,0C28.2,55.8,28.7,55.9,29,56.7L29,56.7
				z"/>
			<path fill="#F9F9E8" d="M71.1,39c-0.3-0.3-0.7-0.5-1-0.8c-0.2-0.2-0.5-0.5-0.5-0.7c-0.1-0.4,0-0.8,0.1-1.3c0.3,0.1,0.7,0.2,1,0.4
				c0.3,0.1,0.6,0.3,0.8,0.5c0.7,0.6,1.4,1.1,2.4,1c0.2,0,0.4,0.3,0.6,0.4c-0.2,0.3-0.4,0.6-0.6,0.9c-0.1-0.1-0.2-0.2-0.2-0.3
				c0-0.6-0.5-0.6-0.8-0.7c-0.3-0.1-0.5,0-0.4,0.5c0.2,0.8-0.2,0.7-0.7,0.4C71.5,39.1,71.3,39.1,71.1,39L71.1,39z"/>
			<path fill="#F9F9E8" d="M29,48.1c-0.1-0.1-0.2-0.5-0.4-0.7c-0.5-0.9-0.4-1.2,0.7-1.5c0.5-0.1,1.2,0.3,1.6-0.4
				c0.1,0.1,0.3,0.1,0.3,0.2c0,0.6,0.3,1.1-0.3,1.6c-0.5,0.4-0.7,1-1.1,1.6c-0.1,0.2-0.3,0.4-0.5,0.6c-0.1-0.3-0.2-0.5-0.3-0.8
				C28.9,48.5,29,48.4,29,48.1z"/>
			<path fill="#F9F9E8" d="M65,35.7c0.8,0.1,1.4,0.2,2.1,0.4c0.1,0,0.2,0.5,0.1,0.5c-0.5,0.3-0.6,0.7-0.4,1.3c0,0.1-0.4,0.4-0.5,0.4
				c-0.6-0.4-1.3-0.8-1.8-1.4C63.9,36.3,64.3,35.7,65,35.7z"/>
			<path fill="#F9F9E8" d="M88.7,51.9c0.7,0.1,1.1,0.3,1.1,1c0,0.6-0.3,0.9-0.9,0.9c-0.7,0-1.6-0.7-1.3-1.1
				C87.7,52.3,88.3,52.2,88.7,51.9z"/>
			<path fill="#F9F9E8" d="M25.8,18.6c0.2,0.2,0.5,0.4,0.5,0.7c0,0.3-0.1,0.8-0.2,0.9c-0.6,0.2-1.3,0.2-1.9,0.3c0,0-0.1-0.3-0.1-0.3
				C24.6,19.5,24.8,18.5,25.8,18.6L25.8,18.6z"/>
			<path fill="#F9F9E8" d="M32.6,60.5c-0.4-0.6-0.8-1-0.9-1.4c-0.1-0.2,0.5-0.5,0.7-0.8c0.3,0.3,0.7,0.6,0.9,1
				C33.3,59.5,32.9,59.9,32.6,60.5z"/>
			<path fill="#F9F9E8" d="M27.1,61.5c0.3,0.4,0.5,0.6,0.6,0.9c0.1,0.4,0.2,0.7,0.3,1.1c0,0.1-0.1,0.5-0.2,0.5
				c-0.3,0-0.6,0.5-0.8-0.1c-0.1-0.5-0.2-1.1-0.3-1.6C26.7,62,26.9,61.8,27.1,61.5z"/>
			<path fill="#F9F9E8" d="M44.9,98.9c0.8,0.1,1.6,0.1,2.5,0.2c0,0.1,0.1,0.3,0,0.3C46.8,100.2,45.3,99.9,44.9,98.9z"/>
			<path fill="#F9F9E8" d="M51.6,22.8c-0.3,0.3-0.5,0.5-0.7,0.5c-0.3-0.1-0.6-0.3-1-0.5c0.2-0.2,0.4-0.5,0.6-0.4
				C50.8,22.4,51.1,22.6,51.6,22.8z"/>
			<path fill="#F9F9E8" d="M7.3,39.5c0.2-0.5,0.4-0.8,0.5-1.2C8,38.7,8.2,39,8.2,39.4c0,0.2-0.2,0.4-0.3,0.7
				C7.7,39.9,7.5,39.7,7.3,39.5z"/>
			<path fill="#F9F9E8" d="M88.3,49.6c-0.4,0.3-0.7,0.5-1,0.6c-0.1,0-0.4-0.3-0.4-0.3c0.2-0.4,0.5-0.7,0.8-1
				C87.8,49,88,49.2,88.3,49.6z"/>
			<path fill="#F9F9E8" d="M25.8,18.6c0.1-0.3,0.3-0.6,0.5-0.8c0.1-0.2,0.4-0.4,0.5-0.4c0.2,0.1,0.4,0.3,0.4,0.5
				c0,0.2-0.2,0.5-0.3,0.6C26.5,18.5,26.2,18.5,25.8,18.6L25.8,18.6z"/>
		</g>
		<path fill="#E2E2D0" d="M98.5,46.9c-0.3,0.8,0.2,1.7-1,2.1c-0.1,0-0.2,0.5-0.2,0.8c-0.4,1.4-1.4,2-2.7,1.5
			c-0.2-0.1-0.5-0.3-0.6-0.6c-0.5-1.1-1-2.2-1.3-3.4c-0.1-0.4,0-1,0-1.4c0-1,0-2.1-0.1-3.1c-0.2-1.1,0.1-1.7,1.1-2.1
			c0.3-0.1,0.6-0.3,0.9-0.4c0.7-0.3,1.7,0.1,2,0.9c0.4,1,0.8,1.9,1.2,2.9C97.9,44.9,98.2,45.9,98.5,46.9z"/>
		<path fill="#E2E2D0" d="M77.1,63.1c0.5,0.4,0.9,0.7,1.3,1c0.5,0.5,1,1.1,1.5,1.7c0.1,0.1,0.2,0.2,0.4,0.3
			c-0.1,0.1-0.3,0.2-0.4,0.2c-0.8,0-1.4,0.4-1.9,1.1c-0.3,0.5-0.4,0.8,0.2,1c0.5,0.2,0.6,0.6,0.4,1.1c-0.3,0.7-0.6,1.5-1,2.2
			c-0.1,0.2-0.5,0.3-0.6,0.3c-0.4-0.5-0.9-0.7-1.6-0.3c0,0-0.2-0.1-0.2-0.1c-0.4-0.8-1.1-1.6-1.2-2.4c-0.1-0.9,0.3-1.9,0.7-2.7
			c0.3-0.6,1-1,1.5-1.5c0.4-0.3,0.9-0.5,0.4-1.1C76.6,63.7,76.9,63.5,77.1,63.1z"/>
		<path fill="#E2E2D0" d="M17.4,76.9c0.4-0.6,0.6-1.2,1.1-1.7c0.3-0.3,0.5-0.5,0.3-0.9c-0.1-0.2,0.1-0.5,0.1-0.7
			c0.2,0.1,0.6,0.1,0.7,0.3c0.2,0.2,0.3,0.5,0.3,0.8c0.2,0.8,0.3,1.6,0.4,2.4c0.1,0.6,0.2,1.1,1,1.1c0.1,0,0.3,0.4,0.3,0.5
			c-0.1,0.5-0.4,0.9-0.3,1.3c0.2,0.7,0.6,1.3,1,1.9c0.2,0.4,0.6,0.7,0.9,1c-0.4,0.1-0.8,0.3-1.3,0.3c-0.3,0-0.8,0.1-0.9-0.1
			c-0.6-0.7-1.2-1.5-1.6-2.2c-0.4-0.6-0.7-1.3-1-2C18,78.2,17.7,77.6,17.4,76.9z"/>
		<path fill="#E2E2D0" d="M17.4,68.7c-0.1,0.1-0.2,0.2-0.3,0.3c-0.3,0.9-1,1.3-2,1.2c-0.2,0-0.5,0-0.7,0.1c-0.5,0.1-0.6,0.3-0.3,0.7
			c0.5,0.7,1,1.3,1.4,2c0.3,0.5,0,1.5-0.6,1.8c-0.6,0.4-0.9-0.2-1.1-0.5c-0.4-0.7-0.9-1.4-1.1-2.1c-0.1-0.3,0.3-0.7,0.3-1.1
			c0-0.6-0.2-1.4,0.8-1.5c0.6-0.1,1.1-0.5,1.7,0c0.3,0.2,1.3-0.6,1.4-1.2c0.1-0.7,0.2-1.4,0.3-2.1c0-0.1,0.1-0.3,0.1-0.3
			c0.2,0,0.5,0,0.6,0.1c0.1,0.6,1.3,0.1,1.1,0.9c-0.2,0.7,0.1,1,0.6,1.1c0.6,0.2,0.6,0.5,0.5,1c-0.1,0.3,0.2,0.6,0.1,0.9
			c0,0.2-0.1,0.5-0.3,0.7c-0.1,0.1-0.5,0.1-0.6,0c-0.6-0.5-1.6-0.6-1.6-1.6C17.6,68.9,17.5,68.8,17.4,68.7z"/>
		<path fill="#E2E2D0" d="M-9.6,106.1C-9.6-28.1-24.9-7.7,110.2-7.7c-1.9,37-0.1,74.7-0.1,111.8C110.1,107.6-0.8,106-9.6,106.1
			C-9.6,68.5-8.9,106.1-9.6,106.1z M25.8,18.6C24.8,18.5,26.1,18,25.8,18.6C24.8,18.5,26,18.3,25.8,18.6z M29,56.7
			c0.4,1.1-3.7-2-0.5,1.7C24.4,53.7,40.9,55,29,56.7C28.7,55.9,29.4,56.7,29,56.7z M71.1,39c0,0-19.2,3.3-18-0.3
			c-1.3,3.9,4.5,5.4,2.5,7.8c0.7-0.9-12.1-1.2-11.9-1c-0.2,0.5-0.6,1-0.9,1.4c-0.4,5.3,0,36.2-12.4,13.6c-0.5,3-1,9.3-1.6,9.3
			c-1.4,0-1.7-3-1.2,0.8c-5.4-2.7-0.5-4.8-2.5-7.9c-11,14.8-4-14.4-3.9-13.7c-3.3,1.9-6.6,4.2-9.6,6.6c0.4-1.5,1.6-5.5,0.8-6.5
			c-1.1,1-1.2,2.5-1.6,3.8c-8.5-9.5,1.4-18.5,0.8-33.3C-45.7,66.4,56.2,109,60.6,97.9c-0.8,2,28.7-16.8,26.8-17.1
			C105.2,83.7,107.5-43,28.5,5.9C27.6,6.1,41.9,2,41.2,4.8c-0.6,2.8-6.6,2.7-7.6,6.5c33.1,1.9,32.6,20.7,7.8,17.6
			c-16.5-2.1-0.7,15.3-2.5,26.4c2.9-1.3,3.3-7.6,2-12.3c-0.9-3.4,0.5-7.1,3.7-8.7c8.7-4.4,16.9-7.8,23.9-10.5
			c4.1-1.6,8.7,0.3,10.5,4.2c5.1,11.3,16.3,31.5,17.2,30.4c0.1,4-7.3,14.3-9.8,15.9c-0.1-2.6-1.4,1.5-3,1.3
			c17.9,2.2-18-29.2-10.6-18C67,48.8,70.5,38.5,71.1,39C70.4,39.2,70.8,38.7,71.1,39z M29.4,33.7C21.4,31.8,28.1,35.8,29.4,33.7
			C29.3,33.7,29.3,33.8,29.4,33.7z M29,48.1C29.5,46.1,28.3,46.5,29,48.1C29,48.4,29,47.9,29,48.1z M65,35.7
			C61.4,35.8,72.5,37,65,35.7C64.3,35.7,65.7,35.8,65,35.7z M88.7,51.9C84.4,54.7,92.9,52.8,88.7,51.9C88.3,52.2,89.3,52,88.7,51.9z
			 M32.6,60.5C33.9,58.1,30.6,57.7,32.6,60.5C32.9,59.9,32.1,59.9,32.6,60.5z M27.1,61.5C25.8,64.2,29.4,64.7,27.1,61.5
			C26.9,61.8,27.4,61.9,27.1,61.5z M51.6,22.8C49.3,21.7,50.2,23.9,51.6,22.8C51.1,22.6,51.2,23.1,51.6,22.8z M7.3,39.5
			C8.7,41,8.6,36.8,7.3,39.5C7.5,39.7,7.5,39,7.3,39.5z M88.3,49.6C87.2,48.1,86.1,50.9,88.3,49.6C88,49.2,87.9,49.8,88.3,49.6z"/>
	</g>
</g>
</svg>
