<?xml version="1.0" encoding="UTF-8" standalone="no"?>
<svg width="107px" height="143px" viewBox="0 0 107 143" version="1.1" xmlns="http://www.w3.org/2000/svg" xmlns:xlink="http://www.w3.org/1999/xlink">
    <!-- Generator: Sketch 48.2 (47327) - http://www.bohemiancoding.com/sketch -->
    <title>Logo</title>
    <desc>Created with Sketch.</desc>
    <defs></defs>
    <g id="Artboard" stroke="none" stroke-width="1" fill="none" fill-rule="evenodd">
        <g id="Logo">
            <rect id="Rectangle" fill="#B23B23" x="0" y="0" width="107" height="143"></rect>
            <path d="M26.608,12.332 C40.668,12.332 53.968,16.664 53.968,38.4 C53.968,59.604 41.2,65 27.748,65 L11.94,65 L11.94,12.332 L26.608,12.332 Z M24.404,21.376 L24.404,55.956 L28.508,55.956 C36.032,55.956 41.048,52.384 41.048,38.4 C41.048,24.264 35.652,21.376 28.356,21.376 L24.404,21.376 Z" id="D" fill="#FAFAFA"></path>
            <path d="M26.608,76.332 C40.668,76.332 53.968,80.664 53.968,102.4 C53.968,123.604 41.2,129 27.748,129 L11.94,129 L11.94,76.332 L26.608,76.332 Z M24.404,85.376 L24.404,119.956 L28.508,119.956 C36.032,119.956 41.048,116.384 41.048,102.4 C41.048,88.264 35.652,85.376 28.356,85.376 L24.404,85.376 Z" id="D" fill="#FAFAFA"></path>
        </g>
    </g>
</svg>