<?xml version="1.0" standalone="no"?>
<!DOCTYPE svg PUBLIC "-//W3C//DTD SVG 20010904//EN"
 "http://www.w3.org/TR/2001/REC-SVG-20010904/DTD/svg10.dtd">
<svg version="1.0" xmlns="http://www.w3.org/2000/svg"
 width="300.000000pt" height="300.000000pt" viewBox="0 0 300.000000 300.000000"
 preserveAspectRatio="xMidYMid meet">
<metadata>
Created by potrace 1.11, written by Peter Selinger 2001-2013
</metadata>
<g transform="translate(0.000000,300.000000) scale(0.100000,-0.100000)"
fill="#000000" stroke="none">
<path d="M380 1500 l0 -1500 1120 0 1120 0 0 1500 0 1500 -1120 0 -1120 0 0
-1500z m780 1240 c100 -29 161 -63 216 -122 95 -101 141 -264 131 -458 -12
-232 -99 -385 -262 -461 -102 -48 -176 -59 -417 -59 l-218 0 0 566 0 566 238
-5 c204 -4 247 -8 312 -27z m-17 -1309 c156 -41 251 -114 309 -236 78 -169 75
-454 -9 -619 -33 -65 -111 -146 -172 -180 -99 -54 -180 -66 -433 -66 l-228 0
0 566 0 567 228 -6 c183 -4 242 -10 305 -26z"/>
<path d="M880 2205 l0 -365 83 0 c125 1 183 34 226 130 56 126 53 367 -4 480
-43 86 -111 120 -237 120 l-68 0 0 -365z"/>
<path d="M880 890 l0 -373 85 6 c47 3 101 14 120 23 49 23 99 84 119 147 26
77 32 254 12 347 -32 152 -97 208 -250 217 l-86 6 0 -373z"/>
</g>
</svg>
