<?xml version="1.0" encoding="utf-8"?>
<!-- Generator: Adobe Illustrator 18.0.0, SVG Export Plug-In . SVG Version: 6.00 Build 0)  -->
<!DOCTYPE svg PUBLIC "-//W3C//DTD SVG 1.1//EN" "http://www.w3.org/Graphics/SVG/1.1/DTD/svg11.dtd">
<svg version="1.1" id="Layer_1" xmlns="http://www.w3.org/2000/svg" xmlns:xlink="http://www.w3.org/1999/xlink" x="0px" y="0px"
	 viewBox="0 0 960 560" enable-background="new 0 0 960 560" xml:space="preserve">
<rect fill="#06171E" width="960" height="560"/>
<circle fill="#FFFFFF" cx="70.9" cy="48.5" r="1.5"/>
<circle fill="#FFFFFF" cx="479.9" cy="279.5" r="1.5"/>
<circle fill="#FFFFFF" cx="640.9" cy="119.5" r="1.5"/>
<circle fill="#FFFFFF" cx="424.9" cy="116.5" r="1.5"/>
<circle fill="#FFFFFF" cx="561.9" cy="166.5" r="1.5"/>
<circle fill="#FFFFFF" cx="352.9" cy="49.5" r="1.5"/>
<circle fill="#FFFFFF" cx="281.9" cy="118.5" r="1.5"/>
<circle fill="#FFFFFF" cx="232.9" cy="212.5" r="1.5"/>
<circle fill="#FFFFFF" cx="840.9" cy="148.2" r="1.5"/>
<circle fill="#FFFFFF" cx="667.9" cy="272.2" r="1.5"/>
<circle fill="#FFFFFF" cx="769.9" cy="306.2" r="1.5"/>
<circle fill="#FFFFFF" cx="741.9" cy="235.2" r="1.5"/>
<circle fill="#FFFFFF" cx="657.9" cy="251.2" r="1.5"/>
<circle fill="#FFFFFF" cx="295.9" cy="165.2" r="1.5"/>
<circle fill="#FFFFFF" cx="209.9" cy="274.2" r="1.5"/>
<circle fill="#FFFFFF" cx="904.6" cy="223.2" r="1.5"/>
<circle fill="#FFFFFF" cx="911.7" cy="79.9" r="1.5"/>
<circle fill="#FFFFFF" cx="820" cy="36.2" r="1.5"/>
<circle fill="#FFFFFF" cx="575.9" cy="45.5" r="1.5"/>
<circle fill="#FFFFFF" cx="666.9" cy="140.5" r="1.5"/>
<circle fill="#FFFFFF" cx="265.9" cy="305.5" r="1.5"/>
<circle fill="#FFFFFF" cx="358.9" cy="238.5" r="1.5"/>
<circle fill="#FFFFFF" cx="37.8" cy="187.2" r="1.5"/>
<circle fill="#FFFFFF" cx="63" cy="280.5" r="1.5"/>
<circle fill="#FFFFFF" cx="459.9" cy="8.5" r="1.5"/>
<circle fill="#FFFFFF" cx="127.9" cy="158.5" r="1.5"/>
<circle fill="#FFFFFF" cx="74.9" cy="295.5" r="1.5"/>
<circle fill="#FFFFFF" cx="496.8" cy="558.5" r="1.5"/>
<circle fill="#FFFFFF" cx="631.1" cy="375.5" r="1.5"/>
<circle fill="#FFFFFF" cx="428.9" cy="363.5" r="1.5"/>
<circle fill="#FFFFFF" cx="560.3" cy="434.2" r="1.5"/>
<circle fill="#FFFFFF" cx="356.9" cy="296.5" r="1.5"/>
<circle fill="#FFFFFF" cx="285.9" cy="365.5" r="1.5"/>
<circle fill="#FFFFFF" cx="236.9" cy="459.5" r="1.5"/>
<circle fill="#FFFFFF" cx="833.2" cy="373" r="1.5"/>
<circle fill="#FFFFFF" cx="681.4" cy="522.3" r="1.5"/>
<circle fill="#FFFFFF" cx="787.4" cy="540.1" r="1.5"/>
<circle fill="#FFFFFF" cx="748.8" cy="474.3" r="1.5"/>
<circle fill="#FFFFFF" cx="668.3" cy="503.1" r="1.5"/>
<circle fill="#FFFFFF" cx="299.9" cy="412.2" r="1.5"/>
<circle fill="#FFFFFF" cx="213.9" cy="521.2" r="1.5"/>
<circle fill="#FFFFFF" cx="907.6" cy="437.3" r="1.5"/>
<circle fill="#FFFFFF" cx="915.7" cy="326.9" r="1.5"/>
<circle fill="#FFFFFF" cx="824" cy="283.2" r="1.5"/>
<circle fill="#FFFFFF" cx="579.9" cy="292.5" r="1.5"/>
<circle fill="#FFFFFF" cx="660" cy="392.3" r="1.5"/>
<circle fill="#FFFFFF" cx="269.9" cy="552.5" r="1.5"/>
<circle fill="#FFFFFF" cx="362.9" cy="485.5" r="1.5"/>
<circle fill="#FFFFFF" cx="41.8" cy="434.2" r="1.5"/>
<circle fill="#FFFFFF" cx="67" cy="527.5" r="1.5"/>
<circle fill="#FFFFFF" cx="131.9" cy="405.5" r="1.5"/>
<path display="none" fill="#060B09" d="M0,361.7l110.1-56.9l26.8,17.3l50.5,30.9l72.7,13L374,325.2l14.5,3.3
	c5.4,1.2,10.6,3.1,15.6,5.7l30,15.6l47.3-13.2l171.5,54.2l104.4-24.7l38.3-19.6l95.9,35.4l68.5,12.7V560H0V361.7z"/>
</svg>
